Coordinates
version=1
nRows=24
nColumns=24
inDegrees=yes

Units are S.I. units (second, meters, Newtons, ...)
Angles are in degrees.

endheader
time	pelvis_tilt	pelvis_list	pelvis_rotation	pelvis_tx	pelvis_ty	pelvis_tz	hip_flexion_r	hip_adduction_r	hip_rotation_r	knee_angle_r	ankle_angle_r	subtalar_angle_r	mtp_angle_r	hip_flexion_l	hip_adduction_l	hip_rotation_l	knee_angle_l	ankle_angle_l	subtalar_angle_l	mtp_angle_l	lumbar_extension	lumbar_bending	lumbar_rotation
      1.76000000	     14.25089939	      4.49961363	     -3.51318110	      0.42900886	      0.95018757	      0.25961002	      7.31716610	     -8.12168951	     -2.20855832	    -69.70364747	     19.03469276	      7.66182116	     49.54957965	     -5.52486288	      8.09180139	     -8.25279017	    -16.71171330	     21.10632837	      5.31836849	     24.24570611	    -30.03460153	     -5.64007524	     10.01341426
      1.76500000	     14.37707686	      4.47152351	     -3.47518532	      0.43545164	      0.95084908	      0.25978876	      7.85812949	     -8.08777078	     -2.30870538	    -69.25418897	     19.47588166	      7.74118127	     47.75540481	     -6.37399664	      8.05681525	     -8.46240037	    -16.17657280	     21.38301142	      5.83624289	     23.76770227	    -30.14535981	     -5.53491367	      9.89220312
      1.77000000	     14.50887157	      4.48003410	     -3.32102140	      0.44168447	      0.95148416	      0.25972052	      8.36400783	     -8.13372026	     -2.55479256	    -68.67066251	     19.70544486	      7.55605657	     47.69609930	     -7.15753705	      8.04456865	     -8.41597764	    -15.79074596	     21.58490893	      6.30281089	     23.77598344	    -30.28928303	     -5.40774227	      9.66043793
      1.77500000	     14.62649817	      4.46376458	     -3.17105650	      0.44781362	      0.95199362	      0.25979055	      8.86657064	     -8.13054347	     -2.77583779	    -68.04207194	     20.07615027	      7.57038798	     47.53717062	     -7.92898440	      8.00456241	     -8.44646986	    -15.38433496	     21.80120708	      6.74392091	     23.71137660	    -30.42117140	     -5.27908482	      9.48753930
      1.78000000	     14.66683756	      4.51563105	     -3.06276028	      0.45385083	      0.95232697	      0.25978670	      9.47591226	     -8.22424282	     -2.96235140	    -67.38452533	     20.31860830	      7.33650586	     47.43666968	     -8.63056619	      8.05849175	     -8.31669368	    -14.90359405	     21.84729481	      7.00721307	     23.62770346	    -30.47792170	     -5.21615749	      9.36359063
      1.78500000	     14.84852085	      4.54510957	     -2.93322050	      0.46005696	      0.95277772	      0.25964907	      9.85975988	     -8.32270807	     -3.18394796	    -66.64610502	     20.66964257	      7.36199078	     46.50949911	     -9.56525675	      8.11810121	     -8.02226803	    -14.29141699	     21.94375068	      7.14132011	     22.89032094	    -30.67109865	     -5.11320770	      9.14159290
      1.79000000	     15.02737928	      4.61602480	     -2.94435182	      0.46642484	      0.95313702	      0.25976484	     10.24972043	     -8.42313531	     -3.21721784	    -65.85712580	     21.11995316	      7.20668787	     46.52498347	    -10.54202038	      8.25444256	     -7.88516380	    -13.58757704	     21.91723670	      7.19523330	     22.79590114	    -30.83367727	     -5.12180771	      9.04745968
      1.79500000	     15.18603546	      4.56664849	     -2.80564261	      0.47271169	      0.95339505	      0.25969199	     10.60065879	     -8.41276334	     -3.44408043	    -64.95523181	     21.34632388	      7.34402359	     46.51510981	    -11.38219123	      8.21645321	     -7.70272269	    -13.13213612	     22.03808811	      7.27656284	     22.59893723	    -30.98641879	     -4.93895655	      8.90303437
      1.80000000	     15.19809439	      4.59984333	     -2.56152740	      0.47893001	      0.95333799	      0.25948298	     11.09997270	     -8.53119404	     -3.82159196	    -64.03502480	     21.72855363	      7.56999036	     45.65939934	    -11.98138666	      8.22971519	     -7.39736297	    -12.83515245	     22.34025493	      7.43208703	     21.11144201	    -31.00276124	     -4.78860199	      8.61473302
      1.80500000	     15.31003655	      4.57476838	     -2.45696074	      0.48503445	      0.95338652	      0.25966037	     11.50545597	     -8.50262527	     -3.98051392	    -63.08091837	     21.85657382	      7.52637162	     45.67373322	    -12.70588581	      8.19980448	     -7.23315002	    -12.47710537	     22.47106718	      7.50476363	     20.95445717	    -31.12054134	     -4.66085539	      8.44137047
      1.81000000	     15.47175821	      4.56034058	     -2.47991020	      0.49119262	      0.95342900	      0.25986608	     11.85435761	     -8.51135552	     -4.01932825	    -62.08341719	     22.02487932	      7.58053072	     45.63900751	    -13.49152692	      8.21725778	     -7.11605040	    -12.08668495	     22.55612112	      7.51141246	     20.70347108	    -31.28579741	     -4.59932719	      8.43122102
      1.81500000	     15.57674842	      4.51280777	     -2.46433663	      0.49737880	      0.95335927	      0.26013131	     12.21861205	     -8.44821732	     -4.09202011	    -60.95620749	     22.27660177	      7.64469909	     45.51589354	    -14.23441613	      8.19208876	     -6.89881043	    -11.67815163	     22.66194059	      7.48603536	     20.39189746	    -31.38617020	     -4.48633730	      8.42825767
      1.82000000	     15.69797788	      4.50533384	     -2.25679174	      0.50350168	      0.95325010	      0.26005426	     12.47600080	     -8.49862581	     -4.38047962	    -59.78828359	     22.62340182	      7.90504141	     44.46740109	    -14.95414047	      8.17171056	     -6.47346401	    -11.36029705	     22.91457571	      7.35152242	     18.89795002	    -31.52537133	     -4.32294186	      8.19833176
      1.82500000	     15.85161201	      4.39549553	     -2.15283795	      0.50970977	      0.95322546	      0.26010018	     12.66744127	     -8.39401025	     -4.55976960	    -58.48651353	     22.71137143	      7.99387338	     44.43763579	    -15.67785116	      8.04797055	     -6.29602648	    -11.12395999	     23.10059210	      7.40343794	     18.81999373	    -31.68547467	     -4.09582581	      8.12138173
      1.83000000	     15.99050718	      4.32589722	     -1.98546197	      0.51594565	      0.95307572	      0.26020391	     12.86440339	     -8.32487194	     -4.78428692	    -57.18955732	     22.71950558	      7.93557354	     44.38456087	    -16.33570665	      7.92930235	     -6.07587431	    -10.95175912	     23.35610011	      7.49129331	     18.74045549	    -31.83655703	     -3.89469348	      7.99439909
      1.83500000	     16.18925571	      4.28272116	     -1.87007696	      0.52217234	      0.95293348	      0.26038049	     12.94567896	     -8.29279737	     -4.98758718	    -55.77448841	     22.77330552	      7.91876023	     44.34834923	    -17.09625298	      7.86384926	     -5.86320110	    -10.70839817	     23.51202207	      7.48567017	     18.49567412	    -32.05278302	     -3.75144243	      7.85217213
      1.84000000	     16.36130788	      4.19153945	     -1.75105005	      0.52844872	      0.95269612	      0.26056951	     13.00180548	     -8.20441225	     -5.23758993	    -54.26667999	     22.79877860	      7.86416198	     44.27967708	    -17.84758179	      7.74573541	     -5.65911848	    -10.45344000	     23.66354686	      7.49908773	     18.09868972	    -32.22758182	     -3.55028264	      7.71369500
      1.84500000	     16.46482223	      4.11361384	     -1.52603600	      0.53444996	      0.95240333	      0.26075812	     13.11111894	     -8.10120262	     -5.46814606	    -52.71806481	     22.76488104	      7.87085125	     44.16780998	    -18.42408079	      7.57675320	     -5.29932190	    -10.37912479	     23.88622904	      7.56441433	     17.63400767	    -32.36591585	     -3.32411303	      7.53743534
      1.85000000	     16.55892009	      4.01500538	     -1.50319056	      0.54069088	      0.95196370	      0.26122965	     13.23159735	     -7.93766721	     -5.56678806	    -51.12855262	     22.68668296	      7.78586480	     44.06823172	    -18.98707052	      7.44354620	     -5.25657162	    -10.31763944	     24.37517094	      7.77688419	     15.31833455	    -32.46027510	     -3.18439294	      7.58425174
      1.85500000	     16.66561385	      3.91810141	     -1.39696696	      0.54688606	      0.95150995	      0.26173709	     13.28914263	     -7.77202597	     -5.67472608	    -49.48878528	     22.46663833	      7.64653352	     44.05217906	    -19.55951114	      7.26764151	     -5.20884788	    -10.23948506	     24.67737204	      7.92108270	     15.22216694	    -32.57588142	     -3.01084369	      7.46512931
      1.86000000	     16.83596868	      3.82695807	     -1.33126412	      0.55323749	      0.95104158	      0.26219770	     13.25746003	     -7.64604851	     -5.81517209	    -47.83294812	     22.21590969	      7.62822714	     44.12262638	    -20.24606608	      7.11621729	     -5.15823062	    -10.11225339	     24.99307386	      8.15306327	     14.80121718	    -32.74975119	     -2.85904435	      7.42031662
      1.86500000	     16.91594093	      3.76652089	     -1.20948412	      0.55941164	      0.95050826	      0.26266940	     13.28727780	     -7.52273895	     -5.93349740	    -46.09413450	     21.88093309	      7.37861929	     44.09511927	    -20.75375994	      6.96734798	     -5.02930520	    -10.12303529	     25.29723005	      8.27509192	     14.65470506	    -32.84998321	     -2.71925981	      7.28783464
      1.87000000	     17.03875563	      3.70660599	     -1.06189066	      0.56558336	      0.94996191	      0.26296576	     13.22642196	     -7.43789796	     -6.16352863	    -44.29631844	     21.58964101	      7.29104870	     44.26714030	    -21.30711600	      6.81787707	     -4.87792778	    -10.12763306	     25.65994409	      8.41941867	     14.09432959	    -32.99015176	     -2.54409523	      7.22843375
      1.87500000	     17.09857105	      3.63507844	     -0.93918446	      0.57179349	      0.94932890	      0.26357169	     13.19474294	     -7.26927434	     -6.26291514	    -42.43122886	     21.25074691	      6.94671961	     44.23188403	    -21.74951542	      6.63562697	     -4.81725379	    -10.22132011	     26.03694404	      8.62014394	     13.87840020	    -33.06123102	     -2.40377912	      7.09057136
